<svg xmlns="http://www.w3.org/2000/svg" viewBox="0 0 79.11 52.52"><defs><style>.cls-1{fill:#b9eeff;}.cls-2{fill:#1078ff;}.cls-3{fill:#50d5ff;}.cls-4{fill:#5cd8ff;}</style></defs><g id="Camada_2" data-name="Camada 2"><g id="_102" data-name="102"><path class="cls-1" d="M68.78,26.59l-3.4,2.47a.61.61,0,0,0-.23.68l1.31,4-3.41-2.47a.6.6,0,0,0-.72,0l-3.41,2.47,1.31-4a.62.62,0,0,0-.22-.68L56.6,26.59h4.21a.61.61,0,0,0,.58-.43l1.3-4,1.31,4a.61.61,0,0,0,.58.43Z"/><path class="cls-2" d="M66.48,34.4h0a.6.6,0,0,1-.38-.13L62.67,31.8l-3.36,2.47a.65.65,0,0,1-1-.73l1.31-4-3.4-2.42a.67.67,0,0,1-.24-.73.65.65,0,0,1,.62-.45h4.21l1.27-4a.63.63,0,0,1,.61-.45h0a.65.65,0,0,1,.62.45l1.31,4,4.16,0a.64.64,0,0,1,.62.45.66.66,0,0,1-.23.73l-3.41,2.47L67,33.4a.68.68,0,0,1,.1.35A.65.65,0,0,1,66.48,34.4ZM58.6,27.24l1.79,1.29a1.26,1.26,0,0,1,.46,1.4L60.16,32,62,30.75a1.28,1.28,0,0,1,1.48,0L65.22,32l-.69-2.1A1.29,1.29,0,0,1,65,28.53l1.79-1.29h-2.2a1.25,1.25,0,0,1-1.2-.89l-.68-2.09L62,26.36a1.26,1.26,0,0,1-1.2.88Z"/><path class="cls-3" d="M74,45.26c.32.8-.09,1.33-.66.84L69,42.64l-.87,5c-.08.68-.8.46-1.14-.33l-3.83-8.95v-.06a9.79,9.79,0,0,0,6.69-3.13l.08.08Z"/><path class="cls-2" d="M67.81,48.65a1.68,1.68,0,0,1-1.39-1.13l-3.83-9a.74.74,0,0,1-.05-.25.7.7,0,0,1,.62-.71,9.09,9.09,0,0,0,6.24-2.92.68.68,0,0,1,.47-.21.75.75,0,0,1,.47.19l.08.08a.64.64,0,0,1,.14.22l4.07,10a1.63,1.63,0,0,1,0,1.5,1,1,0,0,1-.81.43,1.26,1.26,0,0,1-.84-.36l-3.46-2.75L68.8,47.7A1,1,0,0,1,67.81,48.65Zm-3.7-9.84L67.61,47l.78-4.45a.64.64,0,0,1,.41-.5.65.65,0,0,1,.63.1l3.88,3.08-3.64-9A10.29,10.29,0,0,1,64.11,38.81Z"/><path class="cls-1" d="M78.46,4V48.53a3.51,3.51,0,0,1-3.64,3.34H4.29A3.51,3.51,0,0,1,.65,48.53V4A3.5,3.5,0,0,1,4.29.65H74.82A3.5,3.5,0,0,1,78.46,4ZM73.37,46.1c.57.49,1,0,.66-.84L70,35.2l-.08-.08A9.82,9.82,0,1,0,56.44,36l-.46.22-3.64,9c-.31.8.09,1.33.66.84l4.35-3.46.87,5c.07.68.79.46,1.14-.33l3.83-8.95L67,47.26c.34.79,1.06,1,1.14.33l.87-5Z"/><path class="cls-2" d="M74.82,52.52H4.29a4.15,4.15,0,0,1-4.29-4V4A4.15,4.15,0,0,1,4.29,0H74.82a4.16,4.16,0,0,1,4.29,4V48.53A4.16,4.16,0,0,1,74.82,52.52ZM4.29,1.3A2.86,2.86,0,0,0,1.3,4V48.53a2.86,2.86,0,0,0,3,2.69H74.82a2.86,2.86,0,0,0,3-2.69V4a2.86,2.86,0,0,0-3-2.69ZM67.81,48.65a1.68,1.68,0,0,1-1.39-1.13L63.19,40,60,47.51a1.7,1.7,0,0,1-1.4,1.14,1,1,0,0,1-1-1l-.68-3.82L53.4,46.6a1.2,1.2,0,0,1-.81.34,1,1,0,0,1-.8-.43,1.63,1.63,0,0,1,0-1.49l3.63-9,0-.05a10.47,10.47,0,1,1,15.26-.72l4,9.79a1.63,1.63,0,0,1,0,1.5,1,1,0,0,1-.81.43h0a1.26,1.26,0,0,1-.84-.36l-3.46-2.75L68.8,47.7A1,1,0,0,1,67.81,48.65Zm-4.62-11h0a.65.65,0,0,1,.6.39L67.61,47l.78-4.45a.64.64,0,0,1,.41-.5.65.65,0,0,1,.63.1l3.88,3.08L69.4,35.57a.66.66,0,0,1,0-.89,9.17,9.17,0,1,0-12.54.83.64.64,0,0,1,.23.58.66.66,0,0,1-.36.51l-.25.11L53,45.28,57,42.13a.65.65,0,0,1,.63-.1.64.64,0,0,1,.41.5L58.78,47l3.81-8.93A.66.66,0,0,1,63.19,37.66Z"/><path class="cls-4" d="M62.69,18.6a9.83,9.83,0,0,1,.5,19.65h-.5a9.83,9.83,0,0,1,0-19.66Zm2.69,10.46,3.4-2.47h-4.2a.61.61,0,0,1-.58-.43l-1.31-4-1.3,4a.61.61,0,0,1-.58.43H56.6L60,29.06a.62.62,0,0,1,.22.68l-1.31,4,3.41-2.47a.6.6,0,0,1,.72,0l3.41,2.47-1.31-4A.61.61,0,0,1,65.38,29.06Z"/><path class="cls-2" d="M62.69,38.91a10.48,10.48,0,1,1,7.66-3.34,10.37,10.37,0,0,1-7.13,3.32A4.61,4.61,0,0,1,62.69,38.91Zm0-19.66a9.18,9.18,0,1,0,0,18.36h.42a9.18,9.18,0,0,0-.46-18.35ZM66.46,34.4a.6.6,0,0,1-.38-.13l-3.39-2.45-3.38,2.45a.65.65,0,0,1-1-.73l1.31-4-3.4-2.42a.67.67,0,0,1-.24-.73.65.65,0,0,1,.62-.45h4.21l1.27-4a.63.63,0,0,1,.61-.45h0a.65.65,0,0,1,.62.45l1.31,4,4.16,0a.64.64,0,0,1,.62.45.66.66,0,0,1-.23.73l-3.41,2.47,1.32,3.95a.65.65,0,0,1-.24.73A.58.58,0,0,1,66.46,34.4ZM58.6,27.24l1.79,1.29a1.26,1.26,0,0,1,.46,1.4L60.16,32,62,30.75a1.28,1.28,0,0,1,1.48,0L65.22,32l-.69-2.1A1.29,1.29,0,0,1,65,28.53l1.79-1.29h-2.2a1.25,1.25,0,0,1-1.2-.89l-.68-2.09L62,26.36a1.26,1.26,0,0,1-1.2.88Z"/><path class="cls-3" d="M63.19,38.25v.06l-3.83,8.95c-.35.79-1.07,1-1.14.33l-.87-5L53,46.1c-.57.49-1,0-.66-.84l3.64-9,.46-.22a9.81,9.81,0,0,0,6.25,2.25Z"/><path class="cls-2" d="M58.56,48.65a1,1,0,0,1-1-1l-.68-3.82L53.4,46.6a1.2,1.2,0,0,1-.81.34,1,1,0,0,1-.8-.43,1.63,1.63,0,0,1,0-1.49l3.63-9a.64.64,0,0,1,.33-.34l.46-.23a.68.68,0,0,1,.7.09,9.22,9.22,0,0,0,5.87,2.1h.42a.69.69,0,0,1,.49.17.66.66,0,0,1,.2.48,1.12,1.12,0,0,1-.05.31L60,47.51A1.7,1.7,0,0,1,58.56,48.65ZM57.35,42a.59.59,0,0,1,.23,0,.64.64,0,0,1,.41.5L58.78,47l3.45-8.08a10.58,10.58,0,0,1-5.79-2.07L53,45.28,57,42.13A.67.67,0,0,1,57.35,42Z"/><path class="cls-2" d="M67.81,48.65a1.67,1.67,0,0,1-1.39-1.13l-3.83-9a.65.65,0,0,1,1.2-.51L67.61,47l.78-4.45a.64.64,0,0,1,.41-.5.65.65,0,0,1,.63.1l3.88,3.08-4-9.76a.66.66,0,0,1,.36-.85.65.65,0,0,1,.85.36l4.07,10a1.43,1.43,0,0,1-.29,1.75,1.09,1.09,0,0,1-1.4-.18l-3.46-2.75L68.8,47.7a1,1,0,0,1-.84.94Z"/><path class="cls-2" d="M62.69,38.91a10.48,10.48,0,1,1,7.66-3.34,10.37,10.37,0,0,1-7.13,3.32A4.61,4.61,0,0,1,62.69,38.91Zm0-19.66a9.18,9.18,0,1,0,0,18.36h.42a9.18,9.18,0,0,0-.46-18.35Z"/><path class="cls-2" d="M66.48,34.4h0a.6.6,0,0,1-.38-.13L62.67,31.8l-3.36,2.47a.65.65,0,0,1-1-.73l1.31-4-3.4-2.42a.67.67,0,0,1-.24-.73.65.65,0,0,1,.62-.45h4.21l1.27-4a.63.63,0,0,1,.61-.45h0a.65.65,0,0,1,.62.45l1.31,4,4.16,0a.64.64,0,0,1,.62.45.66.66,0,0,1-.23.73l-3.41,2.47L67,33.4a.68.68,0,0,1,.1.35A.65.65,0,0,1,66.48,34.4ZM58.6,27.24l1.79,1.29a1.26,1.26,0,0,1,.46,1.4L60.16,32,62,30.75a1.28,1.28,0,0,1,1.48,0L65.22,32l-.69-2.1A1.29,1.29,0,0,1,65,28.53l1.79-1.29h-2.2a1.25,1.25,0,0,1-1.2-.89l-.68-2.09L62,26.36a1.26,1.26,0,0,1-1.2.88Z"/><path class="cls-2" d="M74.82,52.52H4.29a4.15,4.15,0,0,1-4.29-4V4A4.15,4.15,0,0,1,4.29,0H74.82a4.16,4.16,0,0,1,4.29,4V48.53A4.16,4.16,0,0,1,74.82,52.52ZM4.29,1.3A2.86,2.86,0,0,0,1.3,4V48.53a2.86,2.86,0,0,0,3,2.69H74.82a2.86,2.86,0,0,0,3-2.69V4a2.86,2.86,0,0,0-3-2.69Z"/><path class="cls-2" d="M58.56,48.65l-.16,0a1,1,0,0,1-.82-1l-.68-3.82L53.4,46.6a1.07,1.07,0,0,1-1.36.17,1.43,1.43,0,0,1-.3-1.75l3.63-9a.65.65,0,1,1,1.21.49l-3.52,8.73L57,42.13a.65.65,0,0,1,.63-.1.64.64,0,0,1,.41.5L58.78,47l3.81-8.93a.66.66,0,0,1,.86-.34.65.65,0,0,1,.34.85L60,47.51A1.68,1.68,0,0,1,58.56,48.65Z"/><path class="cls-2" d="M69.2,12.43H59.89a.65.65,0,1,1,0-1.3H69.2a.65.65,0,1,1,0,1.3Z"/><path class="cls-2" d="M51.2,12.43H46.77a.65.65,0,1,1,0-1.3H51.2a.65.65,0,0,1,0,1.3Z"/><path class="cls-2" d="M36.43,12.43H5.4a.65.65,0,1,1,0-1.3h31a.65.65,0,1,1,0,1.3Z"/><path class="cls-2" d="M42.37,21.26H8.06a.65.65,0,0,1,0-1.3H42.37a.65.65,0,0,1,0,1.3Z"/><path class="cls-2" d="M45.35,28.65H36.63a.65.65,0,1,1,0-1.3h8.72a.65.65,0,0,1,0,1.3Z"/><path class="cls-2" d="M32.54,28.65H8.06a.65.65,0,0,1,0-1.3H32.54a.66.66,0,0,1,.65.65A.66.66,0,0,1,32.54,28.65Z"/><path class="cls-2" d="M45.35,36H19a.65.65,0,1,1,0-1.3H45.35a.65.65,0,1,1,0,1.3Z"/><path class="cls-2" d="M14.37,36H8.06a.65.65,0,0,1,0-1.3h6.31a.65.65,0,0,1,0,1.3Z"/><path class="cls-2" d="M45.35,43.41H29.06a.65.65,0,1,1,0-1.3H45.35a.65.65,0,0,1,0,1.3Z"/><path class="cls-2" d="M24.64,43.41H8.06a.65.65,0,0,1,0-1.3H24.64a.65.65,0,1,1,0,1.3Z"/></g></g></svg>